<svg id="Layer_1" data-name="Layer 1" xmlns="http://www.w3.org/2000/svg" viewBox="0 0 48 48"><title>Guides</title><path d="M1,44H15V4H1ZM3,6H13V42H3ZM24,34a3,3,0,1,0,3,3A3,3,0,0,0,24,34Zm0,5a2,2,0,1,1,2-2A2,2,0,0,1,24,39ZM5,17h6V16H5Zm0-2h6V14H5Zm0-2h6V12H5ZM8,34a3,3,0,1,0,3,3A3,3,0,0,0,8,34Zm0,5a2,2,0,1,1,2-2A2,2,0,0,1,8,39ZM43,14H37v1h6ZM40,40a3,3,0,1,0-3-3A3,3,0,0,0,40,40Zm0-5a2,2,0,1,1-2,2A2,2,0,0,1,40,35Zm3-19H37v1h6ZM33,4V44H47V4ZM45,42H35V6H45ZM21,15h6V14H21Zm0-2h6V12H21Zm22-1H37v1h6ZM21,17h6V16H21ZM17,44H31V4H17ZM19,6H29V42H19Z" fill="#231f20"/></svg>