<svg id="Layer_1" data-name="Layer 1" xmlns="http://www.w3.org/2000/svg" viewBox="0 0 48 48"><title>User reference</title><path d="M6,28H19V27H6Zm0,4H19V31H6Zm0-8H19V23H6Zm0-5H19V10H6Zm1-8H18v7H7ZM29,32H42V31H29ZM29,4a7.65,7.65,0,0,0-5,2,7.65,7.65,0,0,0-5-2H0V40H18c4,0,6,4,6,4s2-4,6-4H48V4ZM23,39.78A8,8,0,0,0,18,38H2V6H19a5.79,5.79,0,0,1,3.59,1.41l.41.41ZM46,38H30a8,8,0,0,0-5,1.78v-32l.4-.38A5.7,5.7,0,0,1,29,6H46ZM29,19H42V10H29Zm1-8H41v7H30ZM29,28H42V27H29Zm0-4H42V23H29Z" fill="#231f20"/></svg>